<svg width="26" height="26" viewBox="0 0 26 26" fill="none" xmlns="http://www.w3.org/2000/svg">
<rect width="26" height="26" rx="13" fill="#FF2828" fill-opacity="0.3"/>
<g clip-path="url(#clip0_3_94)">
<path d="M12.999 7C9.68591 7 7.00012 9.68664 7.00012 13.0002C7.00012 16.3134 9.68591 19 12.999 19C16.3139 19 19.0001 16.3129 19.0001 13.0002C19.0001 9.68664 16.3139 7 12.999 7ZM15.5788 14.6248L14.6232 15.5792C14.6232 15.5792 13.1115 13.9571 12.9986 13.9571C12.8875 13.9571 11.3753 15.5792 11.3753 15.5792L10.4193 14.6248C10.4193 14.6248 12.043 13.135 12.043 13.0024C12.043 12.8676 10.4193 11.3773 10.4193 11.3773L11.3753 10.4208C11.3753 10.4208 12.8999 12.0437 12.9986 12.0437C13.0982 12.0437 14.6232 10.4208 14.6232 10.4208L15.5788 11.3773C15.5788 11.3773 13.9547 12.8891 13.9547 13.0024C13.9547 13.1101 15.5788 14.6248 15.5788 14.6248Z" fill="#FF4532"/>
</g>
<defs>
<clipPath id="clip0_3_94">
<rect width="12" height="12" fill="white" transform="translate(7.00012 7)"/>
</clipPath>
</defs>
</svg>
