<svg width="26" height="26" viewBox="0 0 26 26" fill="none" xmlns="http://www.w3.org/2000/svg">
<rect width="26" height="26" rx="13" fill="#6045E2" fill-opacity="0.3"/>
<path d="M18.6164 12.0432C18.4566 12.0432 18.148 12.2972 18.0057 12.6582H17.6893C17.6163 11.6485 17.2233 10.7275 16.6109 9.99536L17.211 9.39635C17.5675 9.55121 17.9656 9.51299 18.0785 9.40026C18.2283 9.25073 18.0333 8.81359 17.6428 8.42389C17.2524 8.03419 16.8144 7.83949 16.6646 7.98904C16.5516 8.10177 16.5133 8.4991 16.6685 8.85483L16.0731 9.44906C15.3492 8.8246 14.4324 8.41718 13.424 8.32719V8.00435C13.7858 7.8623 14.0402 7.55431 14.0402 7.39491C14.0402 7.18342 13.5925 7.01199 13.0404 7.01199C12.4882 7.01199 12.0405 7.18342 12.0405 7.39491C12.0405 7.55431 12.295 7.8623 12.6567 8.00435V8.32055C11.6451 8.39342 10.7223 8.7857 9.98876 9.3969L9.38859 8.79789C9.54377 8.44214 9.50546 8.04481 9.39253 7.93211C9.24271 7.78258 8.80472 7.97726 8.41428 8.36696C8.02383 8.75665 7.82876 9.1938 7.97858 9.34333C8.09153 9.45606 8.48963 9.49428 8.84606 9.33941L9.44145 9.93364C8.81578 10.6561 8.40759 11.5712 8.31743 12.5777H7.99428C7.85197 12.2166 7.54337 11.9627 7.38365 11.9627C7.17178 11.9627 7.00002 12.4094 7.00002 12.9606C7.00002 13.5117 7.17178 13.9584 7.38368 13.9584C7.5434 13.9584 7.85199 13.7045 7.9943 13.3435H8.3107C8.38371 14.3531 8.77676 15.2742 9.38913 16.0063L8.78896 16.6053C8.43253 16.4504 8.03443 16.4887 7.92148 16.6014C7.77166 16.7509 7.96673 17.1881 8.35717 17.5778C8.74762 17.9675 9.18561 18.1622 9.33543 18.0126C9.44838 17.8999 9.48667 17.5026 9.33149 17.1468L9.92688 16.5526C10.6507 17.1771 11.5676 17.5845 12.576 17.6745V17.9974C12.2142 18.1394 11.9598 18.4474 11.9598 18.6068C11.9598 18.8183 12.4075 18.9897 12.9596 18.9897C13.5118 18.9897 13.9594 18.8183 13.9594 18.6068C13.9594 18.4474 13.705 18.1394 13.3433 17.9974V17.6812C14.3549 17.6083 15.2777 17.216 16.0112 16.6048L16.6114 17.2038C16.4562 17.5596 16.4945 17.9569 16.6075 18.0696C16.7573 18.2191 17.1953 18.0244 17.5857 17.6347C17.9762 17.245 18.1712 16.8079 18.0214 16.6584C17.9084 16.5456 17.5103 16.5074 17.1539 16.6623L16.5585 16.0681C17.1842 15.3456 17.5924 14.4305 17.6826 13.424H18.0057C18.148 13.7851 18.4566 14.039 18.6163 14.039C18.8282 14.039 18.9999 13.5923 18.9999 13.0412C18.9999 12.4901 18.8282 12.0432 18.6164 12.0432V12.0432Z" fill="#8068F4"/>
<path d="M11.1564 12.2273C11.7379 12.2273 12.2093 11.7572 12.2093 11.1773C12.2093 10.5973 11.7379 10.1272 11.1564 10.1272C10.5749 10.1272 10.1035 10.5973 10.1035 11.1773C10.1035 11.7572 10.5749 12.2273 11.1564 12.2273Z" fill="#8068F4"/>
<path d="M11.1564 10.1272C11.0291 10.1272 10.9071 10.1497 10.7942 10.191C11.1973 10.3382 11.4849 10.7242 11.4849 11.1772C11.4849 11.6302 11.1973 12.0162 10.7942 12.1635C10.9071 12.2048 11.0291 12.2273 11.1564 12.2273C11.7379 12.2273 12.2092 11.7571 12.2092 11.1772C12.2092 10.5973 11.7379 10.1272 11.1564 10.1272Z" fill="#8068F4"/>
<path d="M15.9846 14.4024C16.2754 14.4024 16.5111 14.1674 16.5111 13.8774C16.5111 13.5874 16.2754 13.3524 15.9846 13.3524C15.6939 13.3524 15.4582 13.5874 15.4582 13.8774C15.4582 14.1674 15.6939 14.4024 15.9846 14.4024Z" fill="#8068F4"/>
<path d="M15.9846 13.3524C15.8976 13.3524 15.8155 13.3736 15.7432 13.4109C15.9124 13.4982 16.0282 13.6743 16.0282 13.8774C16.0282 14.0805 15.9124 14.2566 15.7432 14.3439C15.8155 14.3812 15.8976 14.4024 15.9846 14.4024C16.2754 14.4024 16.5111 14.1674 16.5111 13.8774C16.5111 13.5874 16.2754 13.3524 15.9846 13.3524Z" fill="#8068F4"/>
<path d="M14.2418 16.3956C14.6727 16.3956 15.022 16.0472 15.022 15.6175C15.022 15.1877 14.6727 14.8394 14.2418 14.8394C13.8109 14.8394 13.4615 15.1877 13.4615 15.6175C13.4615 16.0472 13.8109 16.3956 14.2418 16.3956Z" fill="#8068F4"/>
<path d="M14.2418 14.8394C14.111 14.8394 13.9879 14.8716 13.8796 14.9283C14.1281 15.0584 14.2976 15.3181 14.2976 15.6175C14.2976 15.9168 14.1281 16.1765 13.8796 16.3066C13.9879 16.3633 14.111 16.3956 14.2418 16.3956C14.6727 16.3956 15.022 16.0472 15.022 15.6175C15.022 15.1877 14.6727 14.8394 14.2418 14.8394V14.8394Z" fill="#8068F4"/>
<path d="M18.6164 12.0424C18.4566 12.0424 18.148 12.2963 18.0057 12.6573H17.6893C17.6163 11.6477 17.2233 10.7266 16.6109 9.9945L17.2111 9.39549C17.5675 9.55036 17.9656 9.51214 18.0785 9.3994C18.2283 9.24988 18.0333 8.81273 17.6428 8.42303C17.2524 8.03334 16.8144 7.83863 16.6646 7.98819C16.5516 8.10092 16.5133 8.49825 16.6685 8.85397L16.0731 9.4482C15.3492 8.82374 14.4324 8.41632 13.424 8.32633V8.00349C13.7857 7.86145 14.0402 7.55346 14.0402 7.39405C14.0402 7.18257 13.5925 7.01114 13.0403 7.01114C12.4881 7.01114 12.0405 7.18257 12.0405 7.39405C12.0405 7.55346 12.2949 7.86145 12.6567 8.00349V8.31969C12.5882 8.32462 12.52 8.33116 12.4523 8.33901C14.8224 8.58225 16.6712 10.5847 16.6712 13.0191C16.6712 15.4109 14.8864 17.3858 12.576 17.6848V17.9965C12.2142 18.1385 11.9598 18.4465 11.9598 18.6059C11.9598 18.8174 12.4075 18.9889 12.9596 18.9889C13.5118 18.9889 13.9594 18.8174 13.9594 18.6059C13.9594 18.4465 13.705 18.1385 13.3433 17.9965V17.6803C14.3549 17.6074 15.2777 17.2151 16.0112 16.604L16.6114 17.203C16.4562 17.5587 16.4945 17.9561 16.6075 18.0688C16.7573 18.2183 17.1953 18.0236 17.5857 17.6339C17.9762 17.2442 18.1712 16.8071 18.0214 16.6575C17.9084 16.5448 17.5103 16.5066 17.1539 16.6615L16.5585 16.0672C17.1842 15.3448 17.5924 14.4297 17.6826 13.4232H18.0057C18.148 13.7843 18.4566 14.0382 18.6163 14.0382C18.8282 14.0382 18.9999 13.5914 18.9999 13.0403C18.9999 12.4892 18.8282 12.0424 18.6164 12.0424V12.0424Z" fill="#8068F4"/>
</svg>
